<svg width="256" height="169" viewBox="0 0 256 169" fill="none" xmlns="http://www.w3.org/2000/svg">
<g filter="url(#filter0_d_94_686)">
<path d="M115.267 112.075L147.702 104.351L139.977 71.9159L107.542 79.6406L115.267 112.075Z" fill="#F9E050"/>
<path d="M48.4017 43.2512L80.8365 35.5266L75.1871 11.8056L42.7523 19.5303L48.4017 43.2512Z" fill="#F4F464"/>
<path d="M77.972 61.4455L110.407 53.7208L102.682 21.286L70.2473 29.0107L77.972 61.4455ZM6.34113 78.5051L30.2235 72.8173L24.5356 48.9349L0.65331 54.6228L6.34113 78.5051ZM59.7698 90.9833L83.6521 85.2955L77.9643 61.4132L54.082 67.101L59.7698 90.9833Z" fill="#F4F464"/>
<path d="M120.94 135.893L153.374 128.169L145.65 95.7338L113.215 103.458L120.94 135.893Z" fill="#F9B038"/>
<path d="M116.061 153.288L157.016 143.534L151.328 119.652L110.373 129.406L116.061 153.288Z" fill="#F6842D"/>
<path d="M52.9674 168.315L76.8497 162.627L71.1619 138.745L47.2795 144.433L52.9674 168.315Z" fill="#F9E050"/>
<path d="M98.2037 40.4282L130.638 32.7035L122.952 0.430109L90.5175 8.15479L98.2037 40.4282Z" fill="#F6842D"/>
<path d="M71.1414 138.732L95.0238 133.045L89.3359 109.162L65.4536 114.85L71.1414 138.732Z" fill="#F4F464"/>
<path d="M127.628 58.6574L160.063 50.9328L152.338 18.498L119.903 26.2227L127.628 58.6574Z" fill="#F4AC2B"/>
<path d="M133.304 82.491L165.739 74.7663L158.014 42.3315L125.58 50.0562L133.304 82.491Z" fill="#F6842D"/>
<path d="M139.004 106.422L171.439 98.6969L163.714 66.2621L131.279 73.9868L139.004 106.422Z" fill="#F4AC2B"/>
<path d="M144.676 130.24L177.111 122.516L169.386 90.081L136.952 97.8057L144.676 130.24Z" fill="#F6842D"/>
<path d="M114.415 2.46355L120.065 26.1845L143.786 20.5351L166.529 116.032L142.647 121.72L148.335 145.602L212.349 130.357C221.967 128.066 230.032 124.986 236.509 121.107C242.993 117.261 247.823 112.052 251.035 105.49C254.246 98.927 255.867 90.6971 255.833 80.8151C255.806 70.9654 254.063 58.8474 250.627 44.4212C247.16 29.8659 243.331 18.296 239.129 9.74747C234.873 1.04146 229.943 -5.33848 224.343 -9.37621C218.738 -13.6095 211.928 -15.9423 204.904 -16.035C197.585 -16.338 189.044 -15.327 179.313 -13.0096L138.116 -3.19814L114.415 2.46355ZM167.697 10.458L183.14 6.78018C188.465 5.51195 193.226 5.02601 197.359 5.33774C201.64 5.51146 205.679 7.36839 208.599 10.5047C211.968 13.6243 214.984 18.4137 217.684 24.8814C220.529 31.3145 223.268 40.0921 225.919 51.2264C228.563 62.3284 230.058 71.4703 230.465 78.6205C230.987 85.607 230.469 91.3064 228.914 95.735C227.478 99.8247 224.703 103.31 221.038 105.625C217.462 107.79 213.089 109.479 207.877 110.721L192.451 114.395L167.697 10.458Z" fill="#F14D34"/>
<path d="M101.855 55.7583L125.737 50.0705L120.049 26.1882L96.1667 31.876L101.855 55.7583Z" fill="#F9E050"/>
<path d="M100.716 156.943L124.598 151.255L118.91 127.373L95.0277 133.061L100.716 156.943Z" fill="#F9B038"/>
<path d="M72.2843 37.5633L96.1666 31.8754L90.5172 8.15446L66.6349 13.8423L72.2843 37.5633Z" fill="#F9E050"/>
</g>
<defs>
<filter id="filter0_d_94_686" x="-16.4167" y="-16.0874" width="289.32" height="245.57" filterUnits="userSpaceOnUse" color-interpolation-filters="sRGB">
<feFlood flood-opacity="0" result="BackgroundImageFix"/>
<feColorMatrix in="SourceAlpha" type="matrix" values="0 0 0 0 0 0 0 0 0 0 0 0 0 0 0 0 0 0 127 0" result="hardAlpha"/>
<feOffset dy="44.0975"/>
<feGaussianBlur stdDeviation="8.535"/>
<feColorMatrix type="matrix" values="0 0 0 0 0 0 0 0 0 0.0495833 0 0 0 0 0.145833 0 0 0 0.25 0"/>
<feBlend mode="normal" in2="BackgroundImageFix" result="effect1_dropShadow_94_686"/>
<feBlend mode="normal" in="SourceGraphic" in2="effect1_dropShadow_94_686" result="shape"/>
</filter>
</defs>
</svg>
