<svg width="24" height="24" viewBox="0 0 24 24" fill="none" xmlns="http://www.w3.org/2000/svg">
<path d="M12 0C5.373 0 0 5.373 0 12C0 18.627 5.373 24 12 24C18.627 24 24 18.627 24 12C24 5.373 18.627 0 12 0ZM16.654 8.066L15.279 17.036C15.156 17.662 14.82 17.82 14.292 17.532L11.229 15.333L9.792 16.734C9.606 16.92 9.45 17.076 9.09 17.076L9.345 13.947L15.216 8.7C15.468 8.478 15.162 8.352 14.826 8.574L7.734 13.128L4.686 12.15C4.08 11.937 4.068 11.556 4.824 11.244L16.017 7.044C16.527 6.84 16.972 7.116 16.654 8.066Z" fill="currentColor"/>
</svg>