<svg width="24" height="24" viewBox="0 0 24 24" fill="none" xmlns="http://www.w3.org/2000/svg">
<path d="M23.498 6.186C23.251 5.292 22.576 4.617 21.682 4.37C19.837 4 12 4 12 4C12 4 4.163 4 2.318 4.37C1.424 4.617 0.749 5.292 0.502 6.186C0.132 8.031 0.132 12 0.132 12C0.132 12 0.132 15.969 0.502 17.814C0.749 18.708 1.424 19.383 2.318 19.63C4.163 20 12 20 12 20C12 20 19.837 20 21.682 19.63C22.576 19.383 23.251 18.708 23.498 17.814C23.868 15.969 23.868 12 23.868 12C23.868 12 23.868 8.031 23.498 6.186ZM9.636 15.636V8.364L15.818 12L9.636 15.636Z" fill="currentColor"/>
</svg>